# Blender v2.74 (sub 5) OBJ File: 'tree2.blend'
# www.blender.org
o Plane.001_Plane.002
v 3.934824 3.288090 -0.011933
v 3.936010 3.657148 -0.011488
v 3.217422 3.073627 -0.011332
v 1.291636 2.689358 -0.011991
v 3.362110 4.685866 -0.011039
v 1.733305 5.794695 -0.007308
v 2.974431 3.154008 -1.154503
v 3.014488 3.574603 -1.325438
v 2.420017 2.963563 -0.848106
v 1.031572 2.687047 -0.246330
v 2.594982 4.602591 -1.185156
v 1.407967 5.790535 -0.551500
v 0.420669 2.856230 -1.113368
v 0.452035 3.215483 -1.106235
v 0.410148 2.818545 -0.906255
v 0.414727 2.684479 -0.318893
v 0.483926 4.432721 -0.864704
v 0.514903 5.640985 -0.501889
v 0.524868 5.971621 0.000335
v -2.136986 2.869167 -1.027421
v -2.153781 3.118587 -0.980511
v -1.602007 2.834756 -0.835601
v -0.192535 2.689752 -0.238479
v -1.701670 4.128862 -0.584010
v -0.424779 5.464796 -0.291012
v -3.042317 2.885988 0.009449
v -3.052867 3.084282 0.009161
v -2.381738 2.860355 0.009684
v -0.427951 2.692866 0.010315
v -2.488144 4.024742 0.008393
v -0.757109 5.395197 0.004817
v -2.101535 2.868497 1.042856
v -2.119501 3.119175 0.995316
v -1.566742 2.833979 0.849205
v -0.156491 2.689415 0.250461
v -1.666922 4.132659 0.595333
v -0.400965 5.468235 0.299826
v 0.445145 2.599289 -0.001129
v 0.474334 2.856590 1.111223
v 0.505612 3.218397 1.104027
v 0.460717 2.818600 0.904170
v 0.465055 2.684447 0.316645
v 0.537393 4.439090 0.865718
v 0.550361 5.645859 0.505425
v 3.009780 3.155496 1.136548
v 3.049322 3.575367 1.308862
v 2.454759 2.965179 0.830831
v 1.066943 2.687387 0.230236
v 2.630062 4.604806 1.174387
v 1.431174 5.791127 0.543827
v -0.091303 0.000000 -0.195799
v -0.203012 0.000000 -0.073890
v -0.195799 0.000000 0.091303
v -0.073890 0.000000 0.203012
v 0.091303 0.000000 0.195799
v 0.203012 0.000000 0.073890
v 0.195799 0.000000 -0.091303
v 0.073890 0.000000 -0.203012
v 0.118426 1.050918 -0.151115
v 0.034227 1.069453 -0.057027
v 0.039663 1.068256 0.070466
v 0.131551 1.048028 0.156681
v 0.256063 1.020619 0.151115
v 0.340262 1.002084 0.057027
v 0.334826 1.003281 -0.070466
v 0.242938 1.023509 -0.156681
v 0.553756 2.006769 -0.136024
v 0.476259 2.011606 -0.051332
v 0.481263 2.011294 0.063429
v 0.565836 2.006015 0.141034
v 0.680437 1.998861 0.136024
v 0.757934 1.994024 0.051332
v 0.752931 1.994337 -0.063429
v 0.668357 1.999616 -0.141034
v 0.662732 2.942728 -0.097764
v 0.607033 2.946205 -0.036894
v 0.610629 2.945980 0.045588
v 0.671414 2.942186 0.101365
v 0.753781 2.937045 0.097764
v 0.809480 2.933568 0.036894
v 0.805884 2.933792 -0.045588
v 0.745099 2.937587 -0.101365
v 0.522376 1.659212 -0.146296
v 0.410976 1.700364 -0.141098
v 0.604587 1.628844 -0.065795
v 0.609451 1.627047 0.053247
v 0.534119 1.654875 0.141098
v 0.422718 1.696026 0.146296
v 0.340507 1.726395 0.065795
v 0.335643 1.728191 -0.053247
v 0.207019 2.207984 -0.037454
v 0.212036 2.206913 0.077292
v 0.088708 2.095778 0.081748
v 0.083807 2.097633 -0.037290
v -0.004202 2.727456 -0.020345
v 0.000873 2.725640 0.094387
v -0.127649 2.714553 0.101197
v -0.132351 2.716846 -0.017843
v -0.056846 3.134609 0.006081
v -0.053284 3.133335 0.086598
v -0.143479 3.125554 0.091377
v -0.146779 3.127163 0.007837
vt 0.449730 0.702458
vt 0.597823 0.702458
vt 0.597823 0.787503
vt 0.449730 0.787503
vt 0.736169 0.702458
vt 0.736169 0.787503
vt 0.734909 0.702365
vt 0.595334 0.702365
vt 0.595334 0.785844
vt 0.734909 0.785844
vt 0.447881 0.702365
vt 0.447573 0.785844
vt 0.448579 0.701420
vt 0.595160 0.701420
vt 0.595769 0.785926
vt 0.448579 0.785926
vt 0.734322 0.701420
vt 0.734322 0.785926
vt 0.449730 0.654341
vt 0.597823 0.654341
vt 0.736169 0.654341
vt 0.734909 0.652624
vt 0.595334 0.652624
vt 0.447881 0.652624
vt 0.448579 0.655585
vt 0.597228 0.655721
vt 0.734322 0.655703
vt 0.319333 0.780603
vt 0.390285 0.860483
vt 0.342928 0.889372
vt 0.252837 0.778465
vt 0.567461 0.876780
vt 0.565698 0.903064
vt 0.745572 0.872392
vt 0.787925 0.896957
vt 0.821814 0.795682
vt 0.884416 0.797742
vt 0.749548 0.714541
vt 0.793896 0.692844
vt 0.570997 0.699425
vt 0.571538 0.673101
vt 0.394204 0.705086
vt 0.349449 0.673101
vt 0.497926 0.786565
vt 0.519270 0.808726
vt 0.570294 0.817548
vt 0.621128 0.811188
vt 0.641835 0.789647
vt 0.620162 0.767290
vt 0.568814 0.758663
vt 0.518316 0.765221
vt 0.597823 0.881445
vt 0.449730 0.881445
vt 0.736169 0.881445
vt 0.595334 0.880902
vt 0.734448 0.880902
vt 0.447266 0.880902
vt 0.595899 0.881840
vt 0.448579 0.881840
vt 0.734322 0.881840
vt 0.569609 0.788102
vt 0.597823 0.951576
vt 0.595334 0.950049
vt 0.596070 0.948995
vt 0.125721 0.664872
vt 0.145770 0.664872
vt 0.145721 0.760975
vt 0.126614 0.761452
vt 0.106073 0.664872
vt 0.106826 0.761986
vt 0.086605 0.664872
vt 0.086668 0.762106
vt 0.066928 0.664872
vt 0.066833 0.761984
vt 0.046848 0.664872
vt 0.047714 0.761838
vt 0.026731 0.664872
vt 0.029147 0.762246
vt 0.166297 0.664872
vt 0.186708 0.664872
vt 0.182742 0.762250
vt 0.164343 0.761117
vt 0.125575 0.824843
vt 0.144889 0.824899
vt 0.142725 0.853738
vt 0.123780 0.855139
vt 0.106320 0.824957
vt 0.105411 0.856252
vt 0.087005 0.825095
vt 0.087183 0.856526
vt 0.067713 0.825263
vt 0.068838 0.855743
vt 0.048388 0.825570
vt 0.049986 0.854591
vt 0.028623 0.826309
vt 0.030132 0.854220
vt 0.170931 0.719045
vt 0.179757 0.719045
vt 0.188117 0.763870
vt 0.165168 0.761346
vt 0.164688 0.825432
vt 0.162683 0.853239
vt 0.144184 0.931146
vt 0.125239 0.931127
vt 0.106040 0.931227
vt 0.086855 0.931328
vt 0.067661 0.931452
vt 0.048696 0.931676
vt 0.030177 0.932160
vt 0.182413 0.854231
vt 0.181454 0.932160
vt 0.162696 0.931448
vt 0.184475 0.826345
vt 0.183324 0.833093
vt 0.146293 0.831256
vt 0.108382 0.719045
vt 0.114707 0.761776
vt 0.028291 0.719045
vt 0.076527 0.719045
vt 0.072186 0.761130
vt 0.028024 0.759938
vt 0.181464 0.868105
vt 0.143641 0.868105
vt 0.108530 0.828257
vt 0.071806 0.828021
vt 0.032618 0.830831
vt 0.067585 0.913001
vt 0.067585 0.896108
vt 0.097214 0.896384
vt 0.097082 0.912667
vt 0.102701 0.868105
vt 0.068069 0.868105
vt 0.029473 0.868105
vn 0.992100 0.124700 -0.009600
vn 0.440100 0.071700 -0.895000
vn 0.324400 0.474200 -0.818400
vn 0.777400 0.628900 -0.010400
vn -0.074400 0.072800 -0.994600
vn -0.147300 0.273700 -0.950400
vn -0.448900 0.225800 -0.864600
vn -0.397100 0.481700 -0.781200
vn -0.956300 0.292200 0.008900
vn -0.761500 0.648000 0.010300
vn -0.436900 0.225000 0.870900
vn -0.385900 0.475300 0.790600
vn -0.068400 0.071200 0.995100
vn -0.141300 0.271200 0.952100
vn 0.451100 0.072000 0.889600
vn 0.335100 0.476900 0.812500
vn 0.812200 -0.583400 -0.008300
vn 0.401200 -0.614000 -0.679700
vn 0.006900 -0.644600 -0.764400
vn -0.330200 -0.592200 -0.735000
vn -0.839100 -0.543800 0.009200
vn -0.320100 -0.592700 0.739000
vn 0.012700 -0.645100 0.764000
vn 0.411400 -0.614000 0.673600
vn 0.252100 -0.967700 -0.004100
vn 0.157200 -0.967000 -0.200200
vn 0.031200 -0.971500 -0.234800
vn -0.040900 -0.993600 -0.105500
vn -0.056300 -0.998400 0.000800
vn -0.039800 -0.993300 0.108200
vn 0.034000 -0.971600 0.234200
vn 0.160300 -0.967700 0.194400
vn 0.163900 -0.986400 -0.005200
vn 0.097400 -0.979600 -0.175900
vn 0.009900 -0.969800 -0.243800
vn -0.061500 -0.987600 -0.144200
vn -0.088800 -0.996000 0.003200
vn -0.058600 -0.986500 0.152700
vn 0.016800 -0.969600 0.243900
vn 0.102400 -0.980700 0.166400
vn 0.123700 0.777100 -0.617100
vn 0.430600 0.902400 -0.009300
vn -0.204700 0.596100 -0.776400
vn -0.359900 0.680200 -0.638600
vn -0.577100 0.816500 0.013400
vn -0.352200 0.674300 0.649000
vn -0.197100 0.594700 0.779300
vn 0.132400 0.779600 0.612100
vn 0.000000 -1.000000 -0.000000
vn -0.192700 0.981200 0.002100
vn 0.305000 -0.007700 -0.952300
vn -0.447900 0.126800 -0.885000
vn -0.421100 0.162000 -0.892400
vn 0.308200 -0.060600 -0.949400
vn 0.891900 -0.114500 -0.437500
vn 0.868700 -0.237400 -0.434700
vn 0.927200 -0.120900 0.354400
vn 0.902400 -0.248100 0.352200
vn 0.387500 -0.022600 0.921600
vn 0.387200 -0.085200 0.918100
vn -0.371300 0.113200 0.921600
vn -0.345900 0.139500 0.927800
vn -0.892600 0.205000 0.401600
vn -0.864100 0.292900 0.409300
vn -0.922300 0.210200 -0.324400
vn -0.894100 0.301700 -0.330800
vn 0.322900 -0.124100 -0.938300
vn -0.386700 0.193000 -0.901800
vn -0.372100 0.128100 -0.919300
vn 0.366600 -0.069400 -0.927800
vn 0.839200 -0.349000 -0.416900
vn 0.891600 -0.192100 -0.410000
vn 0.869100 -0.361900 0.337000
vn 0.922200 -0.198800 0.331500
vn 0.397600 -0.157000 0.904000
vn 0.442500 -0.088000 0.892400
vn -0.312600 0.159500 0.936400
vn -0.292500 0.105400 0.950400
vn -0.796400 0.117500 0.593200
vn -0.493400 0.400200 0.772200
vn -0.840900 0.138500 -0.523100
vn -0.625600 -0.340900 0.701700
vn -0.678500 -0.317100 -0.662600
vn -0.551500 0.420600 -0.720400
vn -0.410200 0.084900 -0.908000
vn 0.350600 0.010900 -0.936500
vn 0.906700 -0.043100 -0.419400
vn 0.939500 -0.046300 0.339400
vn 0.430300 0.003100 0.902600
vn -0.329600 0.077000 0.940900
vn -0.895600 0.132100 0.424800
vn -0.929200 0.135300 -0.343900
vn -0.690500 -0.133800 0.710800
vn -0.743400 -0.109000 -0.659800
vn 0.471500 0.404400 -0.783600
vn 0.535100 0.380600 0.754100
vn -0.585900 0.540200 0.604000
vn -0.629700 0.561100 -0.537200
vn 0.621900 0.200500 -0.757000
vn 0.681900 0.175500 0.710100
vn 0.539100 0.637300 0.550600
vn 0.493200 0.656900 -0.570200
s 1
f 2/1/1 8/2/2 11/3/3 5/4/4
f 8/2/2 14/5/5 17/6/6 11/3/3
f 14/7/5 21/8/7 24/9/8 17/10/6
f 21/8/7 27/11/9 30/12/10 24/9/8
f 27/13/9 33/14/11 36/15/12 30/16/10
f 33/14/11 40/17/13 43/18/14 36/15/12
f 40/7/13 46/8/15 49/9/16 43/10/14
f 46/8/15 2/11/1 5/12/4 49/9/16
f 1/19/17 7/20/18 8/2/2 2/1/1
f 7/20/18 13/21/19 14/5/5 8/2/2
f 13/22/19 20/23/20 21/8/7 14/7/5
f 20/23/20 26/24/21 27/11/9 21/8/7
f 26/25/21 32/26/22 33/14/11 27/13/9
f 32/26/22 39/27/23 40/17/13 33/14/11
f 39/22/23 45/23/24 46/8/15 40/7/13
f 45/23/24 1/24/17 2/11/1 46/8/15
f 3/28/25 9/29/26 7/30/18 1/31/17
f 9/29/26 15/32/27 13/33/19 7/30/18
f 15/32/27 22/34/28 20/35/20 13/33/19
f 22/34/28 28/36/29 26/37/21 20/35/20
f 28/36/29 34/38/30 32/39/22 26/37/21
f 34/38/30 41/40/31 39/41/23 32/39/22
f 41/40/31 47/42/32 45/43/24 39/41/23
f 47/42/32 3/28/25 1/31/17 45/43/24
f 4/44/33 10/45/34 9/29/26 3/28/25
f 10/45/34 16/46/35 15/32/27 9/29/26
f 16/46/35 23/47/36 22/34/28 15/32/27
f 23/47/36 29/48/37 28/36/29 22/34/28
f 29/48/37 35/49/38 34/38/30 28/36/29
f 35/49/38 42/50/39 41/40/31 34/38/30
f 42/50/39 48/51/40 47/42/32 41/40/31
f 48/51/40 4/44/33 3/28/25 47/42/32
f 5/4/4 11/3/3 12/52/41 6/53/42
f 11/3/3 17/6/6 18/54/43 12/52/41
f 17/10/6 24/9/8 25/55/44 18/56/43
f 24/9/8 30/12/10 31/57/45 25/55/44
f 30/16/10 36/15/12 37/58/46 31/59/45
f 36/15/12 43/18/14 44/60/47 37/58/46
f 43/10/14 49/9/16 50/55/48 44/56/47
f 49/9/16 5/12/4 6/57/42 50/55/48
f 38/61/49 10/45/34 4/44/33
f 38/61/49 16/46/35 10/45/34
f 38/61/49 23/47/36 16/46/35
f 38/61/49 29/48/37 23/47/36
f 38/61/49 35/49/38 29/48/37
f 38/61/49 42/50/39 35/49/38
f 38/61/49 48/51/40 42/50/39
f 38/61/49 4/44/33 48/51/40
f 6/53/42 12/52/41 19/62/50
f 12/52/41 18/54/43 19/62/50
f 18/56/43 25/55/44 19/63/50
f 25/55/44 31/57/45 19/63/50
f 31/59/45 37/58/46 19/64/50
f 37/58/46 44/60/47 19/64/50
f 44/56/47 50/55/48 19/63/50
f 50/55/48 6/57/42 19/63/50
f 58/65/51 51/66/52 59/67/53 66/68/54
f 57/69/55 58/65/51 66/68/54 65/70/56
f 56/71/57 57/69/55 65/70/56 64/72/58
f 55/73/59 56/71/57 64/72/58 63/74/60
f 54/75/61 55/73/59 63/74/60 62/76/62
f 53/77/63 54/75/61 62/76/62 61/78/64
f 52/79/65 53/80/63 61/81/64 60/82/66
f 51/66/52 52/79/65 60/82/66 59/67/53
f 83/83/67 84/84/68 67/85/69 74/86/70
f 85/87/71 83/83/67 74/86/70 73/88/72
f 86/89/73 85/87/71 73/88/72 72/90/74
f 87/91/75 86/89/73 72/90/74 71/92/76
f 88/93/77 87/91/75 71/92/76 70/94/78
f 89/95/79 88/93/77 70/94/78 69/96/80
f 90/97/81 89/98/79 93/99/82 94/100/83
f 84/84/68 90/101/81 68/102/84 67/85/69
f 74/86/70 67/85/69 75/103/85 82/104/86
f 73/88/72 74/86/70 82/104/86 81/105/87
f 72/90/74 73/88/72 81/105/87 80/106/88
f 71/92/76 72/90/74 80/106/88 79/107/89
f 70/94/78 71/92/76 79/107/89 78/108/90
f 69/96/80 70/94/78 78/108/90 77/109/91
f 68/102/84 69/110/80 77/111/91 76/112/92
f 67/85/69 68/102/84 76/112/92 75/103/85
f 66/68/54 59/67/53 84/84/68 83/83/67
f 65/70/56 66/68/54 83/83/67 85/87/71
f 64/72/58 65/70/56 85/87/71 86/89/73
f 63/74/60 64/72/58 86/89/73 87/91/75
f 62/76/62 63/74/60 87/91/75 88/93/77
f 61/78/64 62/76/62 88/93/77 89/95/79
f 60/82/66 61/81/64 89/113/79 90/101/81
f 59/67/53 60/82/66 90/101/81 84/84/68
f 94/100/83 93/99/82 97/114/93 98/115/94
f 68/116/84 90/97/81 94/100/83 91/117/95
f 89/118/79 69/119/80 92/120/96 93/121/82
f 69/119/80 68/116/84 91/117/95 92/120/96
f 98/115/94 97/114/93 101/122/97 102/123/98
f 91/117/95 94/100/83 98/115/94 95/124/99
f 93/121/82 92/120/96 96/125/100 97/126/93
f 92/120/96 91/117/95 95/124/99 96/125/100
f 102/127/98 101/128/97 100/129/101 99/130/102
f 95/124/99 98/115/94 102/123/98 99/131/102
f 97/126/93 96/125/100 100/132/101 101/133/97
f 96/125/100 95/124/99 99/131/102 100/132/101
